<?xml version="1.0" encoding="UTF-8" standalone="no"?><!DOCTYPE svg PUBLIC "-//W3C//DTD SVG 1.1//EN" "http://www.w3.org/Graphics/SVG/1.1/DTD/svg11.dtd"><!-- Generated by graphviz version 2.40.1 (20161225.0304)
 --><!-- Title: linkedlist Pages: 1 --><svg xmlns="http://www.w3.org/2000/svg" xmlns:xlink="http://www.w3.org/1999/xlink" width="325pt" height="191pt" viewBox="0.00 0.00 324.50 191.00">
<g id="graph0" class="graph" transform="scale(1 1) rotate(0) translate(4 187)">
<title>linkedlist</title>
<polygon fill="#ffffff" stroke="transparent" points="-4,4 -4,-187 320.5,-187 320.5,4 -4,4"/>
<!-- A -->
<g id="node1" class="node">
<title>A</title>
<polygon fill="none" stroke="#000000" points="120.5,-146.5 120.5,-182.5 189.5,-182.5 189.5,-146.5 120.5,-146.5"/>
<text text-anchor="middle" x="130.25" y="-160.3" font-family="Times,serif" font-size="14.00" fill="#000000"> </text>
<polyline fill="none" stroke="#000000" points="140,-146.5 140,-182.5 "/>
<text text-anchor="middle" x="155" y="-160.3" font-family="Times,serif" font-size="14.00" fill="#000000">10</text>
<polyline fill="none" stroke="#000000" points="170,-146.5 170,-182.5 "/>
<text text-anchor="middle" x="179.75" y="-160.3" font-family="Times,serif" font-size="14.00" fill="#000000"> </text>
</g>
<!-- B -->
<g id="node2" class="node">
<title>B</title>
<polygon fill="none" stroke="#000000" points="59,-73.5 59,-109.5 121,-109.5 121,-73.5 59,-73.5"/>
<text text-anchor="middle" x="68.75" y="-87.3" font-family="Times,serif" font-size="14.00" fill="#000000"> </text>
<polyline fill="none" stroke="#000000" points="78.5,-73.5 78.5,-109.5 "/>
<text text-anchor="middle" x="90" y="-87.3" font-family="Times,serif" font-size="14.00" fill="#000000">8</text>
<polyline fill="none" stroke="#000000" points="101.5,-73.5 101.5,-109.5 "/>
<text text-anchor="middle" x="111.25" y="-87.3" font-family="Times,serif" font-size="14.00" fill="#000000"> </text>
</g>
<!-- A&#45;&gt;B -->
<g id="edge1" class="edge">
<title>A:PREV-&gt;B:DATA</title>
<path fill="none" stroke="#000000" d="M130,-146.5C130,-126.4452 102.5684,-130.8398 93.1387,-119.1895"/>
<polygon fill="#000000" stroke="#000000" points="90,-109.5 97.3627,-117.6265 91.5409,-114.2567 93.0817,-119.0133 93.0817,-119.0133 93.0817,-119.0133 91.5409,-114.2567 88.8007,-120.4001 90,-109.5 90,-109.5"/>
</g>
<!-- C -->
<g id="node3" class="node">
<title>C</title>
<polygon fill="none" stroke="#000000" points="185.5,-73.5 185.5,-109.5 254.5,-109.5 254.5,-73.5 185.5,-73.5"/>
<text text-anchor="middle" x="195.25" y="-87.3" font-family="Times,serif" font-size="14.00" fill="#000000"> </text>
<polyline fill="none" stroke="#000000" points="205,-73.5 205,-109.5 "/>
<text text-anchor="middle" x="220" y="-87.3" font-family="Times,serif" font-size="14.00" fill="#000000">15</text>
<polyline fill="none" stroke="#000000" points="235,-73.5 235,-109.5 "/>
<text text-anchor="middle" x="244.75" y="-87.3" font-family="Times,serif" font-size="14.00" fill="#000000"> </text>
</g>
<!-- A&#45;&gt;C -->
<g id="edge2" class="edge">
<title>A:NEXT-&gt;C:DATA</title>
<path fill="none" stroke="#000000" d="M180,-146.5C180,-126.4452 207.4316,-130.8398 216.8613,-119.1895"/>
<polygon fill="#000000" stroke="#000000" points="220,-109.5 221.1993,-120.4001 218.4591,-114.2567 216.9183,-119.0133 216.9183,-119.0133 216.9183,-119.0133 218.4591,-114.2567 212.6373,-117.6265 220,-109.5 220,-109.5"/>
</g>
<!-- D -->
<g id="node4" class="node">
<title>D</title>
<polygon fill="none" stroke="#000000" points="0,-.5 0,-36.5 62,-36.5 62,-.5 0,-.5"/>
<text text-anchor="middle" x="9.75" y="-14.3" font-family="Times,serif" font-size="14.00" fill="#000000"> </text>
<polyline fill="none" stroke="#000000" points="19.5,-.5 19.5,-36.5 "/>
<text text-anchor="middle" x="31" y="-14.3" font-family="Times,serif" font-size="14.00" fill="#000000">4</text>
<polyline fill="none" stroke="#000000" points="42.5,-.5 42.5,-36.5 "/>
<text text-anchor="middle" x="52.25" y="-14.3" font-family="Times,serif" font-size="14.00" fill="#000000"> </text>
</g>
<!-- B&#45;&gt;D -->
<g id="edge3" class="edge">
<title>B:PREV-&gt;D:DATA</title>
<path fill="none" stroke="#000000" d="M69,-73.5C69,-54.1633 43.4293,-57.5152 34.2399,-46.3323"/>
<polygon fill="#000000" stroke="#000000" points="31,-36.5 38.4036,-44.5893 32.5648,-41.2488 34.1297,-45.9977 34.1297,-45.9977 34.1297,-45.9977 32.5648,-41.2488 29.8557,-47.406 31,-36.5 31,-36.5"/>
</g>
<!-- E -->
<g id="node5" class="node">
<title>E</title>
<polygon fill="none" stroke="#000000" points="80,-.5 80,-36.5 142,-36.5 142,-.5 80,-.5"/>
<text text-anchor="middle" x="89.75" y="-14.3" font-family="Times,serif" font-size="14.00" fill="#000000"> </text>
<polyline fill="none" stroke="#000000" points="99.5,-.5 99.5,-36.5 "/>
<text text-anchor="middle" x="111" y="-14.3" font-family="Times,serif" font-size="14.00" fill="#000000">9</text>
<polyline fill="none" stroke="#000000" points="122.5,-.5 122.5,-36.5 "/>
<text text-anchor="middle" x="132.25" y="-14.3" font-family="Times,serif" font-size="14.00" fill="#000000"> </text>
</g>
<!-- B&#45;&gt;E -->
<g id="edge4" class="edge">
<title>B:NEXT-&gt;E:DATA</title>
<path fill="none" stroke="#000000" d="M111,-73.5C111,-61.0382 111,-55.6592 111,-46.6281"/>
<polygon fill="#000000" stroke="#000000" points="111,-36.5 115.5001,-46.5 111,-41.5 111.0001,-46.5 111.0001,-46.5 111.0001,-46.5 111,-41.5 106.5001,-46.5 111,-36.5 111,-36.5"/>
</g>
<!-- F -->
<g id="node6" class="node">
<title>F</title>
<polygon fill="none" stroke="#000000" points="160.5,-.5 160.5,-36.5 229.5,-36.5 229.5,-.5 160.5,-.5"/>
<text text-anchor="middle" x="170.25" y="-14.3" font-family="Times,serif" font-size="14.00" fill="#000000"> </text>
<polyline fill="none" stroke="#000000" points="180,-.5 180,-36.5 "/>
<text text-anchor="middle" x="195" y="-14.3" font-family="Times,serif" font-size="14.00" fill="#000000">11</text>
<polyline fill="none" stroke="#000000" points="210,-.5 210,-36.5 "/>
<text text-anchor="middle" x="219.75" y="-14.3" font-family="Times,serif" font-size="14.00" fill="#000000"> </text>
</g>
<!-- C&#45;&gt;F -->
<g id="edge5" class="edge">
<title>C:PREV-&gt;F:DATA</title>
<path fill="none" stroke="#000000" d="M195,-73.5C195,-61.0382 195,-55.6592 195,-46.6281"/>
<polygon fill="#000000" stroke="#000000" points="195,-36.5 199.5001,-46.5 195,-41.5 195.0001,-46.5 195.0001,-46.5 195.0001,-46.5 195,-41.5 190.5001,-46.5 195,-36.5 195,-36.5"/>
</g>
<!-- G -->
<g id="node7" class="node">
<title>G</title>
<polygon fill="none" stroke="#000000" points="247.5,-.5 247.5,-36.5 316.5,-36.5 316.5,-.5 247.5,-.5"/>
<text text-anchor="middle" x="257.25" y="-14.3" font-family="Times,serif" font-size="14.00" fill="#000000"> </text>
<polyline fill="none" stroke="#000000" points="267,-.5 267,-36.5 "/>
<text text-anchor="middle" x="282" y="-14.3" font-family="Times,serif" font-size="14.00" fill="#000000">17</text>
<polyline fill="none" stroke="#000000" points="297,-.5 297,-36.5 "/>
<text text-anchor="middle" x="306.75" y="-14.3" font-family="Times,serif" font-size="14.00" fill="#000000"> </text>
</g>
<!-- C&#45;&gt;G -->
<g id="edge6" class="edge">
<title>C:NEXT-&gt;G:DATA</title>
<path fill="none" stroke="#000000" d="M245,-73.5C245,-54.4228 269.8978,-57.3956 278.8454,-46.2426"/>
<polygon fill="#000000" stroke="#000000" points="282,-36.5 283.2006,-47.4 280.4597,-41.2569 278.9195,-46.0137 278.9195,-46.0137 278.9195,-46.0137 280.4597,-41.2569 274.6383,-44.6275 282,-36.5 282,-36.5"/>
</g>
</g>
</svg>